<?xml version="1.0" encoding="utf-8"?>
<!-- Generator: Adobe Illustrator 17.0.0, SVG Export Plug-In . SVG Version: 6.00 Build 0)  -->
<!DOCTYPE svg PUBLIC "-//W3C//DTD SVG 1.1//EN" "http://www.w3.org/Graphics/SVG/1.1/DTD/svg11.dtd">
<svg version="1.1" id="Layer_1" xmlns="http://www.w3.org/2000/svg" xmlns:xlink="http://www.w3.org/1999/xlink" x="0px" y="0px"
	 width="26.82px" height="34.057px" viewBox="0 0 26.82 34.057" enable-background="new 0 0 26.82 34.057" xml:space="preserve">
<g>
	<g>
		<g>
			<path fill="#010101" d="M13.183,34.057c-3.932,0-7.606-2.113-9.59-5.512c-0.345-0.594-0.145-1.355,0.448-1.701
				c0.595-0.346,1.355-0.146,1.701,0.447c1.54,2.639,4.391,4.277,7.442,4.277c4.747,0,8.607-3.861,8.607-8.607
				c0-4.748-3.86-8.609-8.607-8.609c-0.686,0-1.243-0.557-1.243-1.244c0-0.686,0.558-1.242,1.243-1.242
				c6.117,0,11.096,4.977,11.096,11.096C24.279,29.078,19.3,34.057,13.183,34.057z"/>
		</g>
		<g>
			<path fill="none" stroke="#010101" stroke-width="24" stroke-linecap="round" stroke-miterlimit="10" d="M9.138,25.506"/>
		</g>
		<g>
			<path fill="#010101" d="M1.184,31.172c-0.176,0-0.356-0.039-0.524-0.123c-0.586-0.289-0.827-1-0.536-1.586l2.242-4.527
				c0.236-0.479,0.762-0.738,1.285-0.637l4.961,0.955c0.643,0.123,1.062,0.746,0.94,1.387c-0.125,0.642-0.745,1.062-1.388,0.938
				l-4.077-0.785l-1.841,3.721C2.039,30.932,1.62,31.172,1.184,31.172z"/>
		</g>
	</g>
	<g>
		<g>
			<path fill="#010101" d="M13.636,22.19c-6.119,0-11.096-4.979-11.096-11.096S7.517,0,13.636,0c3.932,0,7.606,2.111,9.589,5.512
				c0.347,0.594,0.148,1.354-0.447,1.699c-0.594,0.348-1.354,0.145-1.7-0.447c-1.539-2.639-4.391-4.277-7.441-4.277
				c-4.747,0-8.61,3.861-8.61,8.607c0,4.748,3.863,8.609,8.61,8.609c0.685,0,1.243,0.557,1.243,1.242
				C14.879,21.633,14.322,22.19,13.636,22.19z"/>
		</g>
		<g>
			<path fill="#010101" d="M23.393,9.91c-0.074,0-0.148-0.01-0.225-0.023l-4.96-0.955c-0.642-0.123-1.062-0.746-0.939-1.387
				c0.124-0.643,0.744-1.062,1.388-0.938l4.076,0.783l1.842-3.719c0.289-0.586,1-0.826,1.586-0.535c0.586,0.289,0.826,1,0.535,1.586
				L24.455,9.25C24.252,9.658,23.837,9.91,23.393,9.91z"/>
		</g>
	</g>
</g>
</svg>
