<?xml version="1.0" encoding="utf-8"?>
<!-- Generator: Adobe Illustrator 17.0.0, SVG Export Plug-In . SVG Version: 6.00 Build 0)  -->
<!DOCTYPE svg PUBLIC "-//W3C//DTD SVG 1.1//EN" "http://www.w3.org/Graphics/SVG/1.1/DTD/svg11.dtd">
<svg version="1.1" id="Layer_1" xmlns="http://www.w3.org/2000/svg" xmlns:xlink="http://www.w3.org/1999/xlink" x="0px" y="0px"
	 width="126.755px" height="39.432px" viewBox="0 0 126.755 39.432" enable-background="new 0 0 126.755 39.432"
	 xml:space="preserve">
<g>
	<g>
		<g>
			<path d="M18.671,12.495h0.757l2.399,5.664l2.421-5.664h0.735l-2.724,6.334l3.459,7.999l6.183-14.463h0.822l-6.615,15.349h-0.735
				l-3.523-8.171l-3.545,8.171H17.59l-6.615-15.349h0.8l6.183,14.463l3.437-7.999L18.671,12.495z"/>
		</g>
		<g>
			<path d="M39.555,27.93c-0.764,0-1.477-0.155-2.14-0.464c-0.663-0.31-1.244-0.736-1.741-1.276
				c-0.497-0.541-0.886-1.167-1.167-1.881c-0.282-0.714-0.422-1.474-0.422-2.281c0-0.792,0.137-1.534,0.411-2.226
				c0.273-0.692,0.655-1.297,1.146-1.816c0.49-0.518,1.059-0.929,1.708-1.232c0.648-0.303,1.354-0.454,2.119-0.454
				c0.764,0,1.477,0.151,2.14,0.454c0.662,0.303,1.239,0.716,1.729,1.243c0.49,0.526,0.879,1.142,1.167,1.848
				c0.288,0.706,0.433,1.456,0.433,2.248c0,0.029-0.004,0.087-0.011,0.173c-0.008,0.087-0.011,0.137-0.011,0.151H34.842
				c0.043,0.692,0.201,1.337,0.475,1.935c0.274,0.598,0.624,1.114,1.048,1.546c0.426,0.432,0.912,0.775,1.46,1.027
				c0.547,0.252,1.131,0.378,1.751,0.378c0.418,0,0.824-0.054,1.221-0.163c0.396-0.108,0.768-0.262,1.113-0.465
				c0.346-0.201,0.648-0.442,0.908-0.724c0.26-0.281,0.469-0.587,0.627-0.919l0.67,0.172c-0.158,0.389-0.393,0.754-0.702,1.093
				c-0.311,0.339-0.667,0.627-1.07,0.864c-0.404,0.237-0.843,0.425-1.319,0.562C40.549,27.861,40.059,27.93,39.555,27.93z
				 M44.203,21.791c-0.043-0.706-0.195-1.354-0.454-1.946c-0.259-0.591-0.602-1.103-1.027-1.535
				c-0.426-0.433-0.912-0.768-1.459-1.006c-0.548-0.237-1.139-0.356-1.773-0.356c-0.634,0-1.226,0.123-1.773,0.367
				c-0.547,0.246-1.03,0.585-1.448,1.016c-0.418,0.433-0.753,0.945-1.005,1.535c-0.253,0.592-0.4,1.232-0.443,1.924H44.203z"/>
		</g>
		<g>
			<path d="M56.503,15.975c-0.144-0.159-0.354-0.328-0.626-0.508c-0.274-0.18-0.595-0.35-0.963-0.509
				c-0.367-0.158-0.774-0.288-1.221-0.389c-0.447-0.1-0.923-0.151-1.427-0.151c-0.952,0-1.673,0.188-2.162,0.562
				c-0.49,0.374-0.735,0.901-0.735,1.578c0,0.375,0.079,0.681,0.237,0.919c0.158,0.238,0.396,0.443,0.713,0.616
				c0.317,0.173,0.714,0.328,1.189,0.464c0.475,0.138,1.03,0.286,1.665,0.443c0.749,0.203,1.438,0.411,2.064,0.627
				c0.627,0.217,1.16,0.487,1.6,0.812c0.44,0.324,0.782,0.724,1.027,1.199c0.245,0.476,0.368,1.067,0.368,1.773
				c0,0.808-0.151,1.492-0.454,2.054c-0.303,0.562-0.709,1.02-1.221,1.373c-0.512,0.354-1.107,0.613-1.783,0.778
				c-0.678,0.165-1.398,0.249-2.162,0.249c-1.167,0-2.299-0.176-3.395-0.529c-1.095-0.353-2.083-0.868-2.962-1.546l1.125-2.075
				c0.187,0.187,0.454,0.396,0.8,0.626c0.346,0.231,0.753,0.443,1.221,0.638c0.468,0.195,0.984,0.36,1.546,0.498
				c0.562,0.137,1.146,0.205,1.751,0.205c0.922,0,1.64-0.169,2.151-0.508c0.512-0.339,0.767-0.833,0.767-1.481
				c0-0.389-0.093-0.713-0.281-0.973c-0.187-0.26-0.461-0.486-0.822-0.681c-0.36-0.196-0.799-0.368-1.318-0.519
				c-0.519-0.152-1.11-0.313-1.772-0.487c-0.765-0.202-1.431-0.414-2-0.638c-0.569-0.224-1.041-0.494-1.416-0.81
				c-0.375-0.317-0.66-0.688-0.854-1.114c-0.195-0.425-0.292-0.94-0.292-1.545c0-0.75,0.141-1.417,0.421-2
				c0.282-0.583,0.671-1.074,1.167-1.47c0.498-0.397,1.085-0.696,1.762-0.897c0.678-0.202,1.405-0.302,2.184-0.302
				c1.066,0,2.036,0.166,2.908,0.497c0.872,0.332,1.639,0.743,2.302,1.232L56.503,15.975z"/>
		</g>
		<g>
			<path d="M74.058,16.407h2.27L71.55,27.713h-1.946l-2.119-5.253l-2.097,5.253h-1.967l-4.756-11.306h2.249l3.653,9.015l1.643-4.194
				l-1.967-4.799h1.945l1.297,3.545l1.298-3.545h1.945l-1.945,4.799l1.643,4.194L74.058,16.407z"/>
		</g>
		<g>
			<path d="M80.63,27.93c-0.548,0-1.056-0.09-1.523-0.271c-0.469-0.18-0.872-0.428-1.211-0.745c-0.339-0.317-0.605-0.692-0.8-1.124
				c-0.195-0.433-0.293-0.901-0.293-1.405c0-0.533,0.116-1.016,0.346-1.448c0.23-0.433,0.559-0.807,0.983-1.125
				c0.426-0.316,0.93-0.562,1.514-0.735c0.584-0.173,1.229-0.259,1.935-0.259c0.532,0,1.061,0.046,1.579,0.14
				c0.518,0.094,0.986,0.22,1.404,0.379v-0.779c0-0.836-0.238-1.487-0.713-1.956c-0.477-0.468-1.161-0.702-2.054-0.702
				c-0.605,0-1.2,0.111-1.783,0.335c-0.584,0.224-1.187,0.544-1.806,0.962l-0.734-1.514c1.455-0.98,2.968-1.471,4.54-1.471
				c1.556,0,2.767,0.397,3.631,1.189c0.866,0.793,1.297,1.931,1.297,3.416v4.085c0,0.274,0.051,0.469,0.152,0.584
				c0.1,0.115,0.272,0.18,0.518,0.194v2.032c-0.229,0.044-0.443,0.072-0.638,0.087c-0.194,0.015-0.371,0.021-0.529,0.021
				c-0.461-0.029-0.811-0.151-1.049-0.368c-0.238-0.216-0.386-0.504-0.441-0.865l-0.066-0.713c-0.505,0.663-1.128,1.171-1.87,1.523
				C82.276,27.753,81.48,27.93,80.63,27.93z M81.278,26.179c0.577,0,1.121-0.104,1.633-0.313c0.511-0.209,0.911-0.5,1.2-0.876
				c0.302-0.259,0.453-0.533,0.453-0.822v-1.492c-0.403-0.158-0.833-0.281-1.286-0.367c-0.454-0.086-0.897-0.129-1.33-0.129
				c-0.85,0-1.545,0.183-2.086,0.551c-0.54,0.368-0.811,0.854-0.811,1.459c0,0.562,0.209,1.034,0.627,1.416
				C80.097,25.988,80.63,26.179,81.278,26.179z"/>
		</g>
		<g>
			<path d="M96.26,27.93c-0.907,0-1.705-0.217-2.389-0.649c-0.685-0.433-1.236-0.995-1.654-1.687v6.724h-2.378V16.407h2.097v2.033
				c0.434-0.678,0.995-1.218,1.687-1.622c0.692-0.403,1.471-0.606,2.335-0.606c0.764,0,1.471,0.159,2.119,0.476
				c0.648,0.317,1.21,0.743,1.687,1.276c0.476,0.533,0.846,1.153,1.113,1.859c0.265,0.706,0.4,1.448,0.4,2.227
				c0,0.821-0.123,1.589-0.368,2.302c-0.246,0.713-0.592,1.333-1.038,1.859c-0.446,0.526-0.977,0.945-1.589,1.254
				C97.668,27.775,96.996,27.93,96.26,27.93z M95.503,25.898c0.49,0,0.945-0.108,1.363-0.325c0.417-0.216,0.771-0.504,1.059-0.864
				c0.289-0.36,0.516-0.771,0.681-1.232c0.166-0.461,0.249-0.937,0.249-1.427c0-0.52-0.091-1.008-0.27-1.47
				c-0.18-0.461-0.429-0.865-0.746-1.211c-0.317-0.346-0.691-0.619-1.124-0.821c-0.432-0.202-0.893-0.303-1.385-0.303
				c-0.302,0-0.619,0.058-0.95,0.173c-0.331,0.116-0.645,0.274-0.941,0.476c-0.295,0.202-0.551,0.436-0.767,0.703
				c-0.217,0.267-0.368,0.559-0.455,0.875v2.962c0.145,0.347,0.332,0.671,0.562,0.973c0.23,0.303,0.49,0.562,0.778,0.778
				c0.289,0.217,0.598,0.389,0.929,0.519C94.818,25.833,95.157,25.898,95.503,25.898z"/>
		</g>
		<g>
			<path d="M109.794,27.93c-0.909,0-1.705-0.217-2.391-0.649c-0.684-0.433-1.235-0.995-1.653-1.687v6.724h-2.377V16.407h2.097v2.033
				c0.432-0.678,0.994-1.218,1.685-1.622c0.691-0.403,1.47-0.606,2.335-0.606c0.765,0,1.47,0.159,2.118,0.476
				c0.648,0.317,1.211,0.743,1.688,1.276c0.475,0.533,0.847,1.153,1.111,1.859c0.268,0.706,0.4,1.448,0.4,2.227
				c0,0.821-0.122,1.589-0.367,2.302c-0.244,0.713-0.591,1.333-1.036,1.859c-0.449,0.526-0.978,0.945-1.591,1.254
				C111.201,27.775,110.527,27.93,109.794,27.93z M109.037,25.898c0.489,0,0.942-0.108,1.361-0.325
				c0.417-0.216,0.771-0.504,1.059-0.864c0.288-0.36,0.515-0.771,0.681-1.232c0.167-0.461,0.249-0.937,0.249-1.427
				c0-0.52-0.089-1.008-0.27-1.47c-0.181-0.461-0.428-0.865-0.746-1.211c-0.317-0.346-0.692-0.619-1.124-0.821
				c-0.434-0.202-0.895-0.303-1.384-0.303c-0.303,0-0.619,0.058-0.951,0.173c-0.331,0.116-0.645,0.274-0.94,0.476
				c-0.296,0.202-0.552,0.436-0.769,0.703c-0.215,0.267-0.366,0.559-0.453,0.875v2.962c0.145,0.347,0.331,0.671,0.562,0.973
				c0.23,0.303,0.491,0.562,0.778,0.778c0.288,0.217,0.6,0.389,0.931,0.519C108.352,25.833,108.69,25.898,109.037,25.898z"/>
		</g>
	</g>
	<g>
		<path d="M126.755,39.432H0V0h126.755V39.432z M2.424,37.007h121.905V2.424H2.424V37.007z"/>
	</g>
</g>
</svg>
